<svg width="80" height="80" viewBox="0 0 80 80" fill="none" xmlns="http://www.w3.org/2000/svg">
<path d="M43.5208 0H36.4793C35.09 0 33.9637 1.12628 33.9637 2.51541C33.9637 3.17296 34.2213 3.80443 34.681 4.27445L37.5855 7.24346H42.4144L45.3189 4.27445C45.7786 3.80443 46.0362 3.17296 46.0362 2.51541C46.0362 1.12628 44.9099 0 43.5208 0V0Z" fill="#928BFF"/>
<path d="M37.5855 7.24347V20.804H42.4145V7.24347C42.4145 5.91003 41.3334 4.82898 40 4.82898C38.6666 4.82898 37.5855 5.91003 37.5855 7.24347Z" fill="#83B3F1"/>
<path d="M26.789 14.4153L31.9784 26.9436L36.4397 25.0957L31.2504 12.5674C30.7401 11.3354 29.3276 10.7504 28.0957 11.2607C26.8637 11.7709 26.2788 13.1834 26.789 14.4153Z" fill="#98D3F3"/>
<path d="M14.2052 9.22625L9.22622 14.2052C8.24385 15.1876 8.24385 16.7804 9.22622 17.7626C9.69125 18.2276 10.3198 18.4919 10.9774 18.4992L15.1304 18.5449L18.545 15.1303L18.4993 10.9772C18.4921 10.3197 18.2276 9.69112 17.7627 9.22625C16.7803 8.24388 15.1876 8.24388 14.2052 9.22625Z" fill="#928BFF"/>
<path d="M15.1303 18.5449L24.719 28.1336L28.1336 24.719L18.5449 15.1303C17.6019 14.1874 16.0732 14.1874 15.1303 15.1303C14.1874 16.0732 14.1874 17.6019 15.1303 18.5449Z" fill="#83B3F1"/>
<path d="M12.5674 31.2505L25.0957 36.4399L26.9436 31.9786L14.4153 26.7892C13.1833 26.2789 11.771 26.8639 11.2607 28.0959C10.7504 29.3278 11.3354 30.7401 12.5674 31.2505Z" fill="#98D3F3"/>
<path d="M0 36.4792V43.5206C0 44.9099 1.12628 46.0362 2.51541 46.0362C3.17296 46.0362 3.80443 45.7787 4.27445 45.319L7.24346 42.4145V37.5855L4.27445 34.681C3.80443 34.2213 3.17296 33.9638 2.51541 33.9638C1.12628 33.9638 0 35.0901 0 36.4792H0Z" fill="#928BFF"/>
<path d="M7.24347 42.4145H20.804V37.5855H7.24347C5.91003 37.5855 4.82898 38.6666 4.82898 40C4.82898 41.3334 5.91003 42.4145 7.24347 42.4145Z" fill="#83B3F1"/>
<path d="M14.4153 53.2109L26.9436 48.0216L25.0957 43.5602L12.5674 48.7496C11.3354 49.2599 10.7504 50.6723 11.2607 51.9042C11.771 53.1363 13.1834 53.7212 14.4153 53.2109Z" fill="#98D3F3"/>
<path d="M9.22622 65.7948L14.2054 70.7739C15.1878 71.7563 16.7805 71.7563 17.7627 70.7739C18.2277 70.3089 18.4921 69.6803 18.4993 69.0228L18.545 64.8697L15.1303 61.4551L10.9772 61.5009C10.3197 61.5081 9.69109 61.7726 9.22622 62.2374C8.24385 63.2196 8.24385 64.8124 9.22622 65.7948Z" fill="#928BFF"/>
<path d="M18.5449 64.8697L28.1336 55.281L24.719 51.8664L15.1303 61.4551C14.1874 62.3981 14.1874 63.9268 15.1303 64.8697C16.0732 65.8126 17.6019 65.8126 18.5449 64.8697Z" fill="#83B3F1"/>
<path d="M31.2505 67.4326L36.4399 54.9043L31.9786 53.0564L26.7892 65.5847C26.2789 66.8168 26.8639 68.2291 28.0959 68.7393C29.3278 69.2496 30.7401 68.6646 31.2505 67.4326Z" fill="#98D3F3"/>
<path d="M36.4792 80H43.5206C44.9099 80 46.036 78.8737 46.036 77.4846C46.036 76.827 45.7785 76.1956 45.3188 75.7255L42.4145 72.7565H37.5855L34.681 75.7255C34.2211 76.1956 33.9637 76.827 33.9637 77.4846C33.9637 78.8737 35.09 80 36.4792 80Z" fill="#928BFF"/>
<path d="M42.4145 72.7565V59.196H37.5855V72.7565C37.5855 74.09 38.6666 75.171 40 75.171C41.3334 75.171 42.4145 74.09 42.4145 72.7565Z" fill="#83B3F1"/>
<path d="M53.2109 65.5847L48.0216 53.0564L43.5602 54.9043L48.7496 67.4326C49.2599 68.6646 50.6724 69.2496 51.9042 68.7393C53.1361 68.2291 53.7212 66.8166 53.2109 65.5847Z" fill="#98D3F3"/>
<path d="M65.7948 70.7738L70.7739 65.7946C71.7563 64.8122 71.7563 63.2197 70.7739 62.2373C70.3089 61.7722 69.6803 61.5079 69.0228 61.5007L64.8697 61.455L61.4551 64.8696L61.5009 69.0226C61.5081 69.6802 61.7726 70.3087 62.2374 70.7738C63.2196 71.7561 64.8124 71.7561 65.7948 70.7738Z" fill="#928BFF"/>
<path d="M64.8697 61.4551L55.281 51.8664L51.8664 55.281L61.4551 64.8697C62.3981 65.8126 63.9268 65.8126 64.8697 64.8697C65.8126 63.9268 65.8126 62.3981 64.8697 61.4551Z" fill="#83B3F1"/>
<path d="M67.4326 48.7495L54.9043 43.5601L53.0565 48.0214L65.5847 53.2108C66.8168 53.7211 68.2291 53.1361 68.7394 51.9041C69.2496 50.6722 68.6647 49.2599 67.4326 48.7495Z" fill="#98D3F3"/>
<path d="M80 43.5208V36.4793C80 35.09 78.8737 33.9639 77.4846 33.9639C76.827 33.9639 76.1956 34.2215 75.7255 34.6812L72.7565 37.5855V42.4145L75.7255 45.3189C76.1956 45.7788 76.827 46.0362 77.4846 46.0362C78.8737 46.0362 80 44.9099 80 43.5208Z" fill="#928BFF"/>
<path d="M72.7566 37.5855H59.196V42.4145H72.7566C74.09 42.4145 75.171 41.3334 75.171 40C75.171 38.6666 74.09 37.5855 72.7566 37.5855Z" fill="#83B3F1"/>
<path d="M65.5847 26.7891L53.0565 31.9784L54.9043 36.4398L67.4326 31.2504C68.6647 30.7401 69.2496 29.3276 68.7394 28.0958C68.2291 26.8637 66.8166 26.2788 65.5847 26.7891Z" fill="#98D3F3"/>
<path d="M70.7738 14.2052L65.7948 9.22625C64.8124 8.24388 63.2198 8.24388 62.2374 9.22625C61.7724 9.69128 61.5081 10.3199 61.5009 10.9774L61.4551 15.1305L64.8697 18.545L69.0228 18.4993C69.6803 18.4921 70.3089 18.2276 70.7739 17.7627C71.7561 16.7804 71.7561 15.1876 70.7738 14.2052Z" fill="#928BFF"/>
<path d="M61.4551 15.1303L51.8664 24.719L55.281 28.1336L64.8697 18.5449C65.8126 17.6019 65.8126 16.0732 64.8697 15.1303C63.9268 14.1874 62.3981 14.1874 61.4551 15.1303Z" fill="#83B3F1"/>
<path d="M48.7494 12.5674L43.5601 25.0957L48.0214 26.9436L53.2108 14.4153C53.721 13.1833 53.1361 11.7709 51.904 11.2607C50.6722 10.7504 49.2599 11.3354 48.7494 12.5674Z" fill="#98D3F3"/>
<path d="M40 64.1449C53.3348 64.1449 64.1448 53.3348 64.1448 40C64.1448 26.6652 53.3348 15.8551 40 15.8551C26.6651 15.8551 15.8551 26.6652 15.8551 40C15.8551 53.3348 26.6651 64.1449 40 64.1449Z" fill="#83B3F1"/>
<path d="M40 20.6841V59.3159C50.6678 59.3159 59.3159 50.6678 59.3159 40C59.3159 29.3322 50.6678 20.6841 40 20.6841Z" fill="#736DD9"/>
<path d="M54.4869 40C54.4869 29.3322 48.0009 20.6841 40 20.6841C29.3321 20.6841 20.6841 29.3322 20.6841 40C20.6841 50.6678 29.3321 59.3159 40 59.3159C48.0009 59.3159 54.4869 50.6678 54.4869 40Z" fill="#928BFF"/>
<path d="M40 42.4145C41.3335 42.4145 42.4145 41.3335 42.4145 40C42.4145 38.6665 41.3335 37.5855 40 37.5855C38.6665 37.5855 37.5855 38.6665 37.5855 40C37.5855 41.3335 38.6665 42.4145 40 42.4145Z" fill="#736DD9"/>
<path d="M27.9276 42.4145C29.261 42.4145 30.342 41.3335 30.342 40C30.342 38.6665 29.261 37.5855 27.9276 37.5855C26.5941 37.5855 25.5131 38.6665 25.5131 40C25.5131 41.3335 26.5941 42.4145 27.9276 42.4145Z" fill="#736DD9"/>
<path d="M40 30.3421C41.3335 30.3421 42.4145 29.2611 42.4145 27.9276C42.4145 26.5941 41.3335 25.5131 40 25.5131C38.6665 25.5131 37.5855 26.5941 37.5855 27.9276C37.5855 29.2611 38.6665 30.3421 40 30.3421Z" fill="#736DD9"/>
<path d="M40 54.4869C41.3335 54.4869 42.4145 53.4059 42.4145 52.0724C42.4145 50.739 41.3335 49.658 40 49.658C38.6665 49.658 37.5855 50.739 37.5855 52.0724C37.5855 53.4059 38.6665 54.4869 40 54.4869Z" fill="#736DD9"/>
<path d="M33.1709 48.0364C33.8376 48.0364 34.3781 47.4959 34.3781 46.8291C34.3781 46.1624 33.8376 45.6219 33.1709 45.6219C32.5041 45.6219 31.9636 46.1624 31.9636 46.8291C31.9636 47.4959 32.5041 48.0364 33.1709 48.0364Z" fill="#736DD9"/>
<path d="M46.8291 48.0364C47.4959 48.0364 48.0364 47.4959 48.0364 46.8291C48.0364 46.1624 47.4959 45.6219 46.8291 45.6219C46.1624 45.6219 45.6219 46.1624 45.6219 46.8291C45.6219 47.4959 46.1624 48.0364 46.8291 48.0364Z" fill="#554FB2"/>
<path d="M49.6579 41.2072C50.3247 41.2072 50.8652 40.6667 50.8652 40C50.8652 39.3333 50.3247 38.7928 49.6579 38.7928C48.9912 38.7928 48.4507 39.3333 48.4507 40C48.4507 40.6667 48.9912 41.2072 49.6579 41.2072Z" fill="#736DD9"/>
<path d="M33.1709 34.3781C33.8376 34.3781 34.3781 33.8376 34.3781 33.1709C34.3781 32.5041 33.8376 31.9636 33.1709 31.9636C32.5041 31.9636 31.9636 32.5041 31.9636 33.1709C31.9636 33.8376 32.5041 34.3781 33.1709 34.3781Z" fill="#554FB2"/>
</svg>
